<?xml version="1.0" standalone="no"?>
<!DOCTYPE svg PUBLIC "-//W3C//DTD SVG 20010904//EN"
 "http://www.w3.org/TR/2001/REC-SVG-20010904/DTD/svg10.dtd">
<svg version="1.0" xmlns="http://www.w3.org/2000/svg"
 width="4183.000000pt" height="3079.000000pt" viewBox="0 0 4183.000000 3079.000000"
 preserveAspectRatio="xMidYMid meet">

<g transform="translate(0.000000,3079.000000) scale(0.100000,-0.100000)"
fill="#000000" stroke="none">
<path d="M36072 30774 c-234 -25 -425 -69 -607 -139 -116 -45 -597 -280 -1050
-512 -728 -375 -976 -499 -1159 -582 -320 -146 -490 -251 -608 -379 -79 -85
-112 -157 -112 -242 0 -52 5 -75 26 -112 l26 -47 -191 -138 c-562 -404 -1304
-976 -1657 -1278 -449 -384 -925 -862 -1341 -1345 -728 -848 -1394 -1836
-1998 -2965 -216 -402 -557 -1111 -722 -1497 -30 -71 -58 -128 -64 -128 -5 0
-323 314 -707 698 l-696 697 -12 90 c-18 135 -76 438 -105 545 -73 267 -189
464 -392 661 -323 313 -822 554 -1398 674 l-80 17 -2138 2137 -2137 2136
-6143 -6142 -6142 -6143 -31 20 -30 20 -242 -81 -241 -80 24 -66 c14 -36 25
-69 25 -74 0 -4 -47 -40 -105 -79 l-106 -71 -69 36 c-39 19 -75 35 -81 35 -17
0 -239 -210 -236 -223 1 -7 -6 -11 -17 -9 -14 3 -17 -1 -12 -13 3 -9 6 -19 6
-22 0 -2 7 3 16 11 13 14 51 16 265 16 168 0 249 -3 249 -11 0 -5 5 -7 10 -4
6 4 7 12 4 18 -13 23 25 -19 165 -183 77 -90 139 -166 137 -168 -2 -2 -22 6
-44 17 l-41 21 -103 -151 c-57 -83 -111 -162 -121 -175 l-19 -25 -159 153
c-88 84 -196 186 -240 227 l-80 74 -75 -74 c-41 -40 -73 -77 -72 -81 2 -4 122
-127 268 -274 146 -147 258 -265 249 -261 -14 4 -26 -17 -64 -106 -101 -238
-137 -322 -142 -327 -3 -3 -16 9 -30 25 -31 35 -318 339 -449 474 l-92 95 -22
-43 c-12 -24 -36 -76 -55 -116 l-33 -74 191 -178 c106 -98 258 -238 340 -312
81 -74 147 -136 147 -139 0 -2 -22 -1 -49 3 l-48 7 -21 -79 c-11 -43 -35 -138
-53 -210 -17 -73 -34 -133 -38 -133 -3 0 -161 138 -351 305 -189 168 -347 301
-351 297 -3 -4 -11 -20 -17 -37 -5 -16 -19 -53 -30 -82 l-21 -52 307 -278
c553 -502 526 -476 506 -484 -11 -4 -33 -8 -50 -8 -40 -1 -44 -11 -45 -124 -1
-51 -4 -136 -8 -190 l-6 -98 -70 58 c-38 32 -148 123 -244 203 -95 80 -188
156 -205 170 -17 13 -84 69 -149 123 -65 55 -122 95 -126 91 -8 -8 -41 -165
-41 -191 0 -11 31 -39 235 -217 38 -34 95 -84 125 -112 30 -28 129 -115 220
-193 153 -133 263 -231 364 -323 36 -33 38 -38 19 -38 -30 0 -115 -19 -131
-29 -11 -7 -11 -26 2 -111 9 -57 14 -105 12 -107 -2 -2 -9 17 -16 42 -11 40
-30 62 -30 35 0 -5 -16 -10 -36 -10 -25 0 -41 7 -55 23 -15 18 -18 19 -19 5 0
-9 4 -20 10 -23 6 -3 10 -11 10 -17 0 -6 -6 -6 -15 2 -22 18 -27 8 -15 -26
l11 -29 -28 31 c-16 17 -38 36 -48 42 -17 10 -18 13 -5 23 13 9 12 10 -3 5
-23 -7 -67 13 -67 31 0 9 5 11 13 7 6 -4 1 5 -12 19 -14 15 -27 27 -29 27 -3
0 3 -9 12 -19 10 -11 13 -21 7 -25 -5 -4 -17 4 -25 16 -9 12 -16 18 -16 13 0
-5 -15 5 -33 22 -27 26 -163 141 -272 229 -16 13 -61 49 -98 80 -37 31 -70 55
-72 53 -2 -3 -7 -68 -12 -146 l-8 -142 24 -11 c21 -9 22 -13 10 -21 -11 -8 -9
-9 7 -5 14 4 27 -1 39 -14 18 -20 18 -21 -1 -14 -10 4 -16 4 -12 -1 4 -4 16
-8 25 -9 20 -1 73 -39 73 -51 0 -4 -7 -2 -15 5 -23 19 -18 2 6 -23 12 -12 19
-16 15 -9 -4 6 -4 17 -1 22 8 13 96 -47 92 -63 -1 -7 6 -11 15 -9 9 1 22 -7
28 -19 10 -17 9 -20 -2 -16 -7 2 -12 10 -10 16 1 6 -2 11 -8 11 -5 0 -10 -4
-10 -9 0 -5 -6 -11 -14 -14 -8 -3 -13 1 -12 11 1 15 -17 17 -159 20 -160 3
-182 8 -170 40 3 7 0 10 -5 7 -6 -3 -10 -1 -10 5 0 7 -6 5 -15 -4 -8 -8 -15
-25 -15 -38 1 -21 2 -20 14 7 l12 30 12 -34 c16 -45 14 -64 -3 -27 l-13 30 -6
-31 c-4 -16 -3 -50 3 -74 5 -24 18 -97 27 -162 17 -111 19 -118 38 -112 12 3
41 8 66 11 l45 6 31 -128 31 -129 -31 -37 c-64 -75 -64 -72 -11 -220 26 -73
62 -174 81 -225 19 -51 34 -97 34 -104 0 -7 9 -9 23 -5 13 3 49 8 80 12 l57 7
51 -107 c34 -73 47 -111 41 -119 -6 -7 -24 -35 -40 -64 l-31 -52 65 -101 c35
-56 64 -103 64 -105 0 -4 159 -256 172 -272 8 -9 24 -5 69 17 32 17 64 30 71
30 8 0 44 -31 82 -69 l68 -69 -52 -66 c-28 -36 -50 -69 -48 -74 1 -4 86 -88
187 -185 l184 -178 51 50 c29 28 55 51 60 51 9 0 149 -128 154 -142 2 -4 -13
-51 -34 -103 -23 -58 -34 -99 -28 -104 5 -5 64 -30 132 -56 67 -26 122 -50
122 -54 0 -4 -186 -108 -413 -231 -591 -320 -766 -416 -902 -490 -125 -69
-123 -66 -110 -128 l5 -22 1143 2 1142 3 2 319 c1 175 4 320 5 321 2 2 68 -3
148 -11 217 -20 200 -23 200 36 0 28 4 50 9 50 5 0 24 -7 44 -15 l35 -14 20
47 c20 46 22 48 56 44 32 -4 41 -12 83 -79 45 -74 47 -75 81 -69 27 4 35 1 39
-13 4 -15 31 -19 211 -35 114 -9 262 -22 328 -28 l122 -11 88 -83 89 -83 62
61 62 61 38 -33 c21 -18 64 -57 96 -86 l57 -53 -46 -116 c-26 -64 -45 -118
-43 -120 7 -6 609 -245 619 -245 9 0 43 67 84 164 l14 34 136 -56 136 -56 0
-101 0 -102 318 -27 c174 -15 336 -30 359 -33 l43 -5 0 61 c0 33 4 61 9 61 5
0 28 -7 51 -15 23 -8 44 -15 46 -15 2 0 13 23 25 50 21 49 23 50 64 50 42 0
42 0 95 -85 53 -85 53 -85 95 -85 33 0 44 -4 47 -18 5 -16 40 -21 329 -45 178
-15 350 -30 382 -34 l57 -6 0 102 0 101 48 0 c26 0 71 -3 100 -7 l54 -6 56
-85 56 -84 131 7 c71 4 240 15 375 24 l245 16 0 89 0 89 40 14 c22 8 60 19 84
25 l44 11 86 -93 87 -93 269 97 c149 54 311 113 360 131 50 19 102 37 117 41
16 3 28 7 28 9 0 2 -11 40 -24 86 -40 141 -39 135 -9 157 16 10 71 45 123 77
l95 57 96 -103 97 -103 83 74 c241 212 529 473 529 480 0 3 -34 46 -75 94 -85
99 -85 89 -3 178 l53 57 99 -44 c55 -25 103 -45 107 -45 11 0 401 589 397 599
-2 4 -46 48 -98 97 -60 56 -94 95 -93 106 2 10 23 61 47 113 l45 95 134 0 135
0 17 95 c20 111 8 106 167 75 1088 -207 2453 -321 3473 -290 594 18 1118 52
1697 110 277 28 251 32 299 -45 23 -36 43 -65 45 -65 3 0 31 14 64 30 33 17
63 30 68 30 7 0 114 -101 142 -135 7 -9 -3 -29 -40 -75 -27 -34 -50 -66 -50
-70 0 -5 87 -92 193 -194 l192 -185 56 55 56 55 71 -63 c39 -35 73 -71 77 -81
4 -11 -8 -56 -31 -113 -20 -52 -34 -97 -31 -100 8 -8 550 -225 553 -221 2 1
21 42 43 89 l40 87 115 -47 116 -47 0 -92 0 -93 28 0 c15 0 153 -11 307 -25
154 -14 286 -25 293 -25 8 0 12 18 12 55 0 30 2 55 5 55 3 0 22 -7 42 -15 19
-8 39 -15 43 -15 4 0 15 20 24 45 16 41 20 45 52 45 32 0 38 -5 87 -81 50 -78
53 -80 84 -74 24 4 34 1 41 -12 9 -15 54 -21 319 -45 169 -15 320 -27 336 -28
l27 0 0 91 0 92 38 -7 c20 -3 58 -6 84 -6 l48 0 47 -72 c27 -40 53 -76 58 -80
6 -4 25 -5 43 -2 29 6 39 0 105 -59 l74 -66 61 61 61 61 68 -60 c37 -34 77
-70 87 -82 l20 -22 -174 -174 -175 -175 272 0 273 0 127 -51 c71 -28 149 -60
176 -70 l47 -19 33 68 c17 37 37 71 42 75 18 15 168 -2 228 -25 l57 -23 0
-102 0 -102 53 -5 c96 -11 618 -56 648 -56 29 0 29 0 29 60 0 33 2 60 5 60 3
0 22 -7 42 -15 53 -22 59 -20 82 35 20 46 24 50 56 50 41 0 51 -9 111 -105
l47 -76 43 7 c40 6 44 4 44 -15 0 -13 7 -21 18 -22 9 0 181 -15 382 -32 l365
-32 3 103 3 103 82 -6 c45 -3 91 -8 102 -11 12 -2 40 -37 69 -84 27 -45 52
-83 56 -85 4 -2 168 7 366 20 197 14 367 25 376 25 16 0 17 9 11 89 l-6 89 84
27 83 26 91 -95 90 -95 255 94 c140 52 309 113 375 136 66 23 124 45 129 50 5
4 -4 54 -22 116 -17 59 -28 111 -24 114 4 4 28 19 55 34 l47 27 0 -137 0 -138
673 7 c369 3 887 6 1150 6 385 0 477 3 477 13 0 7 -118 77 -262 155 -145 79
-301 163 -348 189 -47 25 -182 98 -300 163 -118 64 -288 156 -378 205 -109 59
-173 100 -192 123 l-29 35 66 71 c36 39 70 70 75 68 5 -1 48 -20 95 -42 47
-22 90 -40 96 -40 7 0 101 134 210 297 l197 296 -57 52 c-128 116 -143 131
-143 142 0 6 20 58 44 115 l44 103 135 3 134 3 22 117 c46 248 102 539 112
585 6 26 9 53 6 60 -3 8 -52 26 -110 41 l-105 28 5 86 c2 48 6 110 9 139 5 50
7 52 47 67 188 69 172 60 170 97 -3 49 -82 788 -89 827 -3 17 -10 32 -16 32
-6 0 -51 -9 -100 -21 -49 -12 -91 -19 -94 -17 -7 7 -54 170 -54 187 0 27 58
80 100 92 33 10 39 16 34 32 -5 16 41 67 237 263 l243 243 -287 286 c-158 158
-287 291 -287 297 0 6 145 156 323 334 177 178 322 328 322 333 0 6 -644 656
-1431 1443 l-1432 1433 -49 106 c-93 196 -219 377 -347 497 -43 40 -66 68 -62
77 3 8 47 86 97 172 50 87 126 217 167 288 41 72 182 308 312 525 1297 2163
2445 3763 3371 4701 195 197 277 274 464 434 689 590 1623 1154 2789 1686
l279 127 49 -26 c42 -21 66 -26 156 -30 190 -8 461 49 817 171 917 315 1252
414 1900 562 411 93 514 118 675 167 586 176 975 403 1127 658 78 131 88 235
48 504 -55 369 -94 489 -210 641 -147 193 -399 336 -956 543 -696 259 -1977
630 -2664 772 -830 171 -1493 239 -1903 194z m918 -1653 c365 -56 1113 -225
1446 -327 l119 -36 155 4 155 5 -355 -89 c-972 -242 -1280 -330 -1530 -440
-370 -162 -560 -348 -579 -563 l-6 -72 -370 -188 c-820 -416 -1177 -620 -1655
-944 -1135 -769 -2236 -1788 -3287 -3044 -327 -391 -834 -1045 -1063 -1373
-30 -43 -97 -137 -147 -209 -158 -222 -633 -938 -790 -1190 -219 -351 -452
-742 -602 -1007 -18 -32 -36 -60 -40 -62 -9 -6 -845 828 -849 848 -3 12 132
343 248 611 214 494 326 744 495 1105 101 216 343 704 445 900 117 223 185
350 207 390 11 19 51 89 88 155 461 817 836 1352 1310 1870 148 162 391 405
555 555 74 68 160 146 190 174 205 190 781 648 1140 907 462 334 1061 731
1068 709 2 -5 -4 -22 -12 -38 -13 -26 -13 -31 3 -58 43 -68 92 -94 179 -94 78
1 124 21 432 197 883 503 1737 961 2115 1135 260 120 330 148 437 173 89 21
120 24 233 20 72 -2 191 -13 265 -24z m-4139 -387 c188 -56 402 -278 482 -501
35 -96 52 -229 33 -257 -7 -12 -74 -59 -147 -105 -1062 -670 -2008 -1412
-2699 -2116 -425 -433 -671 -737 -1018 -1256 -383 -575 -913 -1547 -1285
-2354 -30 -66 -68 -149 -85 -185 -481 -1035 -1098 -2579 -1553 -3884 l-83
-240 -462 -227 c-254 -125 -484 -237 -510 -250 -27 -12 -66 -30 -87 -41 l-39
-19 7 33 c74 360 327 1279 502 1828 36 113 71 227 79 253 68 222 336 962 497
1372 355 904 793 1826 1245 2625 932 1649 2025 2990 3267 4011 304 250 928
727 1395 1067 287 209 364 261 386 262 11 0 45 -7 75 -16z m4047 -1178 c117
-54 237 -216 279 -379 19 -76 13 -191 -13 -257 -27 -66 -84 -160 -108 -175
-12 -7 -102 -49 -201 -93 -1269 -562 -2301 -1187 -3060 -1853 -521 -457 -1160
-1201 -1862 -2169 -251 -346 -759 -1089 -952 -1393 -32 -51 -109 -171 -171
-267 -189 -294 -474 -754 -727 -1175 -223 -372 -297 -496 -480 -810 -214 -367
-560 -980 -768 -1360 -18 -33 -45 -82 -61 -110 -15 -27 -83 -153 -151 -280
-68 -126 -126 -231 -128 -233 -1 -2 -18 23 -36 56 l-32 59 -211 7 c-407 12
-439 12 -444 -2 -2 -8 -16 -10 -40 -6 l-37 5 -35 -88 -35 -88 -68 2 c-63 1
-71 4 -130 48 -52 38 -67 45 -93 40 -25 -4 -33 -1 -43 17 -10 20 -2 43 64 188
171 373 523 1085 730 1475 697 1315 1508 2602 2338 3710 186 249 208 277 454
584 373 465 666 804 1044 1206 179 191 641 653 799 800 302 280 535 483 825
716 660 532 1297 952 2010 1326 184 97 1005 510 1045 526 8 4 65 5 125 4 97
-2 118 -6 173 -31z m-15281 -2697 c-12 -3 -96 -9 -187 -13 -424 -18 -962 -71
-1430 -142 -966 -146 -1995 -424 -2950 -799 -80 -32 -161 -63 -180 -70 -62
-23 -481 -201 -605 -257 -66 -30 -259 -135 -430 -233 -806 -463 -1723 -999
-1923 -1123 -279 -174 -545 -385 -783 -622 -306 -305 -504 -577 -679 -935
-123 -251 -201 -478 -254 -745 -37 -189 -49 -337 -43 -543 6 -200 12 -241 33
-233 11 4 14 -7 14 -49 0 -64 -17 -59 235 -80 543 -45 1028 -64 1817 -72 l647
-6 5 -41 c3 -23 10 -104 16 -181 19 -250 63 -499 126 -724 193 -686 566 -1115
1069 -1228 47 -11 118 -16 220 -15 149 0 192 7 353 57 21 7 22 5 22 -51 1 -33
7 -225 14 -429 8 -203 13 -371 11 -373 -4 -5 -589 101 -895 162 -295 59 -609
125 -835 177 -77 17 -156 35 -175 39 -50 10 -336 77 -680 160 -162 38 -385 91
-495 117 -160 37 -211 54 -253 80 -60 38 -60 38 -82 18 -15 -13 -33 -12 -171
15 -85 17 -164 33 -176 35 -19 4 -21 10 -16 59 l5 55 -38 10 c-219 56 -607
151 -621 151 -13 0 -27 -23 -52 -86 -18 -47 -40 -88 -48 -91 -8 -3 -67 1 -131
8 l-116 14 -33 55 c-17 30 -41 71 -52 92 l-20 36 -83 6 c-46 3 -192 8 -325 11
-209 4 -243 3 -243 -10 0 -8 -6 -13 -12 -11 -64 20 -62 22 -103 -79 l-38 -95
-66 6 c-51 5 -76 14 -111 38 -25 17 -47 33 -50 36 -25 25 -39 30 -63 21 -24
-9 -28 -6 -63 53 l-37 64 -221 7 c-122 3 -261 5 -311 3 l-90 -3 -14 -96 -14
-96 -81 -7 c-152 -11 -150 -12 -242 55 l-84 61 -278 -92 c-152 -51 -281 -98
-286 -105 -7 -10 -19 -10 -58 1 l-50 13 -24 -57 c-38 -88 -48 -106 -59 -105
-5 1 -48 5 -95 9 -47 3 -93 10 -102 15 -9 5 -36 43 -59 84 -43 74 -43 75 -84
75 -23 0 -84 3 -134 7 l-93 6 5339 5339 5338 5338 1342 -1342 c1165 -1165
1340 -1344 1320 -1349z m2140 -673 c507 -148 864 -394 979 -678 64 -155 159
-890 228 -1758 8 -101 13 -186 11 -188 -5 -5 -67 29 -401 217 l-271 152 13 87
c32 216 47 425 47 652 0 272 -16 401 -66 550 -69 203 -305 539 -611 870 -23
25 -62 67 -86 94 l-45 49 41 -6 c23 -4 95 -22 161 -41z m-5565 -2661 c454 -68
738 -372 883 -944 71 -281 99 -559 99 -991 1 -350 -11 -670 -24 -670 -4 0 -18
26 -30 58 -13 31 -46 102 -74 157 l-50 99 -18 -64 c-92 -325 -353 -1134 -395
-1224 -31 -68 4 310 57 604 16 91 34 205 40 255 16 129 29 530 23 671 l-6 122
-53 32 c-29 18 -82 44 -116 58 -56 24 -76 27 -178 26 -102 0 -125 -3 -201 -30
-327 -116 -560 -470 -646 -982 -25 -152 -25 -523 0 -677 25 -149 99 -442 152
-600 126 -378 265 -585 430 -641 40 -13 -78 -36 -220 -41 -115 -4 -157 -1
-235 15 -532 111 -901 597 -1029 1358 -39 230 -46 332 -46 664 1 323 7 432 45
745 120 986 473 1697 965 1942 80 40 122 53 203 63 113 13 322 11 424 -5z
m-1757 -374 c138 -37 282 -118 368 -209 l29 -30 -50 -105 c-143 -298 -255
-689 -317 -1106 -8 -57 -18 -107 -21 -112 -3 -5 -18 -9 -33 -9 -43 0 -130 -29
-206 -68 -94 -49 -224 -179 -284 -284 -124 -221 -175 -444 -175 -758 0 -275
34 -461 134 -740 100 -277 190 -466 300 -630 53 -79 163 -200 182 -200 4 0 8
-5 8 -11 0 -13 -113 -6 -210 12 -460 85 -818 514 -995 1194 -94 362 -131 741
-122 1253 8 443 51 725 157 1027 118 337 322 611 535 717 161 81 506 109 700
59z m9325 -406 l424 -424 -16 -48 c-9 -26 -45 -129 -80 -228 -302 -841 -621
-1930 -794 -2710 -9 -44 -22 -85 -28 -92 -6 -6 -119 -62 -251 -124 l-240 -112
-272 7 c-175 4 -274 2 -278 -4 -3 -5 -20 -9 -36 -7 -29 2 -32 -1 -62 -77 l-32
-78 -61 5 c-52 4 -70 11 -116 45 -39 28 -61 39 -79 35 -20 -4 -29 4 -57 50
l-33 54 -196 6 c-108 4 -231 7 -273 7 l-77 0 -12 -89 -12 -88 -105 -6 -104 -7
-75 55 -74 55 -243 -81 c-134 -45 -246 -85 -251 -88 -4 -4 4 -38 18 -76 21
-56 24 -70 13 -80 -34 -33 -183 -125 -186 -115 -2 5 3 76 12 157 39 372 49
838 31 1471 l-7 242 101 0 c106 0 288 32 387 69 226 82 333 224 322 425 -5 93
-28 152 -89 234 -23 29 -39 54 -37 56 113 71 186 173 208 293 20 103 -7 209
-76 305 -19 27 -30 48 -25 48 5 0 32 21 60 46 60 54 118 164 127 240 l6 50
117 28 c1123 269 1559 405 1781 556 64 43 150 132 174 178 10 20 24 32 36 32
19 0 20 7 20 105 0 58 3 105 8 105 4 0 198 -191 432 -425z m-4805 165 c330
-15 554 -36 880 -81 67 -9 84 -15 65 -20 -20 -5 -14 -8 25 -10 39 -2 43 -3 18
-6 l-33 -4 0 -238 0 -239 -22 -6 c-13 -3 -106 5 -208 19 -612 79 -1260 94
-2246 49 l-150 -7 -23 119 c-13 66 -41 177 -63 248 -21 70 -37 130 -36 132 6
5 479 34 713 43 308 12 828 12 1080 1z m1887 -406 c140 -90 226 -204 236 -310
9 -103 -55 -226 -140 -270 -28 -14 -31 -14 -66 14 -20 16 -47 34 -60 41 -12 7
-20 16 -17 22 4 5 3 8 -2 7 -16 -4 -53 14 -48 23 4 5 11 9 16 9 6 0 7 -5 3
-11 -4 -8 0 -8 15 0 24 13 28 23 6 15 -11 -5 -13 -2 -9 10 3 9 1 16 -6 16 -6
0 -8 -4 -5 -10 3 -5 -1 -10 -9 -10 -8 0 -18 5 -21 10 -3 6 -1 10 5 10 8 0 10
60 8 208 l-3 208 25 -4 c23 -3 23 -2 -7 18 -18 12 -33 26 -33 31 0 13 14 11
29 -3 11 -11 13 -10 8 5 -9 24 -4 22 75 -29z m-853 -210 c2 -2 -20 -2 -48 -2
-31 1 -46 5 -39 10 11 7 76 1 87 -8z m-809 -28 c269 -22 529 -56 564 -73 16
-8 25 -10 21 -3 -7 12 24 6 85 -16 33 -12 34 -13 8 -13 l-27 -1 -3 -250 c-2
-160 1 -252 7 -254 6 -3 -10 -3 -35 -1 -42 4 -41 4 20 -15 l65 -19 -50 4 c-27
3 -63 7 -80 9 -594 86 -1218 112 -2017 86 -167 -5 -324 -12 -350 -15 l-46 -5
-6 97 c-10 167 -26 370 -32 416 l-6 45 153 7 c85 4 226 11 314 15 269 13 1194
4 1415 -14z m1560 -220 c0 -3 -4 -8 -10 -11 -5 -3 -10 -1 -10 4 0 6 5 11 10
11 6 0 10 -2 10 -4z m60 -200 c203 -153 251 -320 136 -479 -21 -29 -116 -97
-135 -97 -12 0 -126 75 -149 97 -10 10 -10 13 -1 13 6 0 18 -8 25 -17 12 -16
13 -16 14 -2 0 9 -10 24 -22 33 -21 14 -22 16 -5 26 15 10 17 33 17 252 0 217
-2 242 -17 255 -49 38 74 -34 137 -81z m-892 -203 c-10 -2 -28 -2 -40 0 -13 2
-5 4 17 4 22 1 32 -1 23 -4z m-803 -47 c198 -17 354 -35 540 -62 l110 -17 0
-206 c0 -171 -3 -208 -15 -218 -13 -11 -13 -12 3 -13 9 0 17 -6 17 -14 0 -9
-7 -12 -20 -9 -27 7 -25 -5 3 -17 21 -8 21 -9 -5 -9 -15 -1 -30 4 -33 10 -4 6
-13 8 -21 5 -7 -3 -54 1 -104 10 -600 97 -1256 120 -2080 75 -91 -5 -166 -8
-168 -6 -2 2 -1 108 3 235 7 224 8 230 29 235 121 27 1423 27 1741 1z m1530
-186 c3 -6 -1 -7 -9 -4 -18 7 -21 14 -7 14 6 0 13 -4 16 -10z m5237 -866 c-30
-57 -33 -60 -119 -99 -108 -48 -602 -286 -893 -429 -118 -58 -216 -104 -217
-102 -8 7 490 1381 514 1420 3 5 172 -158 375 -361 l370 -370 -30 -59z m-5173
645 c11 -11 24 -19 29 -19 20 0 121 -114 151 -169 90 -170 -16 -371 -226 -426
-31 -8 -58 -17 -61 -19 -2 -3 -10 0 -17 7 -14 13 -1 31 31 41 10 3 4 4 -13 2
-22 -2 -33 2 -33 11 0 7 5 13 10 13 6 0 10 100 10 280 l0 281 23 9 c18 7 19 9
3 9 -12 1 -16 6 -12 17 3 8 2 12 -4 9 -6 -3 -10 1 -10 10 0 14 8 12 50 -11 27
-15 58 -35 69 -45z m-116 20 c5 -3 2 -9 -5 -12 -9 -3 -14 3 -15 15 -1 11 1 16
5 12 4 -5 11 -12 15 -15z m-1988 -169 c220 -12 440 -29 473 -37 12 -3 22 -12
22 -20 0 -11 7 -13 26 -9 21 6 23 4 13 -7 -7 -7 -26 -12 -43 -10 -17 1 -23 0
-13 -3 16 -5 17 -58 17 -919 0 -502 -3 -920 -6 -929 -3 -9 -12 -16 -19 -16 -8
0 -17 -5 -21 -12 -5 -7 -3 -8 5 -4 18 12 93 17 86 7 -7 -12 -95 -42 -95 -33 0
4 -4 2 -8 -4 -26 -41 -377 -68 -524 -40 -236 44 -574 207 -783 376 -33 26 -46
31 -74 26 -44 -7 -60 -23 -68 -69 -5 -33 -2 -41 31 -72 96 -91 385 -259 558
-326 48 -19 88 -37 88 -42 0 -14 -109 -224 -163 -314 -178 -293 -436 -594
-705 -820 l-114 -97 -72 2 c-170 6 -607 42 -1046 87 -487 50 -1280 159 -1305
179 -10 8 -15 102 -24 391 -6 209 -14 416 -17 460 l-6 80 63 45 c35 25 67 47
72 48 4 2 35 -22 68 -53 177 -163 393 -270 633 -311 113 -20 337 -15 441 10
316 77 609 333 818 717 63 115 139 296 192 453 111 333 175 673 220 1168 l6
67 42 5 c23 3 155 10 292 16 138 6 273 12 300 14 130 7 469 5 640 -4z m1259
-161 c-4 -8 1 -9 15 -4 12 4 63 -3 115 -16 l93 -22 7 -121 c30 -571 39 -1464
17 -1736 -26 -333 -108 -958 -131 -1000 -5 -10 -35 -23 -68 -31 -48 -12 -64
-12 -88 -2 -27 11 -27 12 -5 13 16 0 21 4 17 15 -3 8 -1 15 4 15 7 0 10 518
10 1440 0 1145 -3 1440 -12 1440 -9 0 -8 4 2 10 20 13 33 13 24 -1z m7519
-696 c132 -167 245 -388 336 -658 73 -217 109 -382 140 -640 l20 -160 -41 -53
c-23 -29 -46 -51 -52 -49 -6 2 -66 24 -134 48 l-123 44 7 105 6 106 -102 24
c-81 19 -104 28 -110 45 -5 11 -18 88 -30 170 -42 297 -106 575 -163 705 l-15
35 96 172 c54 95 100 173 104 173 4 0 31 -30 61 -67z m-10566 -695 c-111 -227
-261 -428 -403 -543 l-49 -39 61 65 c134 142 284 354 394 556 30 56 57 100 59
98 2 -2 -26 -64 -62 -137z m-1958 -412 c0 -14 -39 -44 -103 -81 -54 -32 -53
-27 18 63 47 59 50 61 68 46 10 -10 18 -22 17 -28z m4288 -192 c-3 -3 -12 -4
-19 -1 -8 3 -5 6 6 6 11 1 17 -2 13 -5z m-47 -533 l-5 -530 30 -7 30 -8 -35
-4 c-33 -5 -34 -5 -10 -12 20 -7 17 -8 -20 -9 -27 -1 -40 -4 -32 -9 8 -5 -12
-12 -53 -18 -36 -6 -67 -8 -69 -5 -2 3 -20 60 -40 126 -81 261 -216 621 -320
853 -25 56 -46 104 -46 105 0 2 37 -1 83 -6 108 -11 326 7 432 37 28 8 52 15
55 15 3 1 3 -237 0 -528z m-568 64 c136 -339 277 -789 328 -1048 10 -52 10
-59 -9 -83 -12 -15 -21 -32 -21 -39 0 -17 -135 -249 -198 -340 -126 -181 -316
-390 -485 -531 -223 -188 -583 -392 -1022 -579 -257 -110 -238 -105 -352 -94
-430 43 -744 124 -1038 269 -244 120 -502 295 -865 587 -257 206 -625 533
-585 519 34 -12 326 -84 405 -100 477 -95 950 -111 1350 -45 268 44 484 112
720 225 613 295 1143 780 1498 1371 34 55 76 131 94 167 l33 67 33 -73 c18
-40 69 -163 114 -273z m5452 -55 c-6 -6 -10 -3 -10 10 0 13 4 16 10 10 7 -7 7
-13 0 -20z m-424 9 c0 -6 7 -9 14 -6 10 4 13 1 10 -7 -3 -7 2 -19 11 -26 13
-11 14 -10 9 6 -4 10 20 -10 53 -46 100 -108 304 -350 296 -350 -5 0 -26 11
-48 25 -22 13 -45 25 -51 25 -6 0 -46 -52 -90 -115 -78 -115 -160 -233 -186
-269 -13 -18 -23 -10 -159 120 -80 76 -207 198 -282 269 -109 103 -149 148
-192 218 -50 81 -53 90 -39 104 13 14 17 14 25 2 8 -11 9 -10 7 6 -4 24 -34
22 319 23 255 2 292 4 287 17 -4 8 -1 15 5 15 6 0 11 -5 11 -11z m535 -43
c-47 -58 -59 -61 -89 -24 -31 40 -19 54 41 49 25 -2 50 2 56 8 6 6 15 11 20
11 4 0 -8 -20 -28 -44z m-3394 5 c27 2 52 -1 56 -5 4 -3 -7 -21 -24 -38 -27
-27 -34 -29 -47 -18 -9 7 -16 17 -16 22 0 5 -9 18 -20 30 -11 12 -20 27 -20
32 0 6 5 3 11 -7 8 -14 21 -17 60 -16z m-485 -1 c26 0 44 5 44 11 0 8 5 7 15
-1 13 -11 13 -15 3 -22 -10 -7 -10 -9 2 -5 8 2 14 12 14 21 -2 13 1 14 12 5 8
-6 11 -16 7 -22 -3 -5 -2 -7 4 -4 9 5 189 -191 181 -198 -8 -7 -390 -117 -393
-113 -4 4 39 276 51 328 4 14 9 19 11 13 3 -8 23 -13 49 -13z m574 16 c0 -3
-4 -8 -10 -11 -5 -3 -10 -1 -10 4 0 6 5 11 10 11 6 0 10 -2 10 -4z m-14350
-36 c5 0 7 8 4 18 -5 16 -5 16 6 -1 10 -16 33 -17 263 -17 164 1 253 -2 255
-9 2 -7 8 -6 17 2 7 7 10 16 7 21 -3 5 0 6 7 2 7 -5 10 -10 7 -14 -3 -3 8 -15
24 -27 26 -19 350 -389 350 -399 0 -3 -19 6 -42 19 -24 14 -50 25 -58 25 -8 0
-76 -88 -150 -195 -74 -108 -140 -194 -146 -193 -7 2 -104 91 -216 198 -111
107 -233 224 -270 259 -38 35 -95 105 -128 155 l-59 90 52 47 c40 36 54 44 60
33 4 -8 12 -14 17 -14z m1114 -5 c-4 -8 -10 -12 -15 -9 -5 3 -9 0 -9 -5 0 -12
-68 -87 -73 -80 -1 2 -20 25 -41 52 -20 26 -34 47 -30 47 4 0 13 -8 21 -17 13
-16 14 -16 9 -1 -3 12 1 16 14 15 10 -1 16 -5 13 -10 -3 -5 4 -6 17 -2 15 5
26 2 31 -6 6 -10 11 -11 17 -3 6 9 41 32 49 34 1 0 0 -7 -3 -15z m-3094 -110
c5 3 10 11 10 16 0 6 -5 7 -12 3 -7 -4 -8 -3 -4 5 12 19 27 1 20 -22 -6 -19
-5 -20 8 -10 8 7 18 10 21 6 4 -3 13 0 21 7 34 27 34 2 0 -32 -20 -21 -39 -36
-43 -34 -3 3 -21 26 -40 53 -18 26 -23 38 -12 25 11 -13 25 -21 31 -17z
m18288 -209 c58 -29 107 -74 372 -340 272 -274 348 -354 311 -332 -13 8 -20
-7 -137 -284 -47 -113 -89 -209 -93 -213 -4 -4 -72 61 -152 145 -79 84 -187
198 -239 253 -53 55 -132 138 -175 184 -44 45 -115 110 -158 144 -55 42 -77
66 -74 77 4 15 268 399 275 400 1 0 33 -15 70 -34z m-16570 -60 c58 -30 107
-74 380 -349 171 -174 312 -317 312 -320 0 -3 -7 -4 -16 -3 -11 1 -44 -66
-119 -243 -57 -134 -107 -246 -110 -250 -7 -6 -63 50 -415 423 -124 131 -262
268 -308 303 -46 36 -82 69 -80 74 7 19 274 398 281 399 4 0 38 -15 75 -34z
m16162 -644 c36 -25 70 -51 75 -57 6 -7 75 -72 155 -145 80 -73 168 -154 195
-179 28 -26 137 -127 243 -225 l194 -178 -60 7 -61 7 -10 -39 c-6 -21 -33
-133 -62 -250 l-51 -212 -346 308 c-191 169 -400 351 -465 406 -65 54 -116
104 -113 109 2 6 45 108 96 226 50 118 98 230 106 248 15 37 9 39 104 -26z
m-16593 -44 c34 -24 133 -108 220 -188 254 -233 653 -602 653 -604 0 -1 -26 0
-58 2 l-58 4 -58 -238 c-32 -132 -61 -242 -65 -246 -3 -3 -188 155 -411 352
l-405 359 -37 -97 c-21 -53 -38 -102 -38 -108 0 -11 58 -66 350 -329 79 -71
230 -208 335 -304 104 -96 209 -191 233 -213 23 -21 42 -40 42 -42 0 -2 -25
-6 -56 -8 -31 -3 -59 -10 -64 -17 -4 -7 -11 -92 -15 -189 -4 -98 -10 -198 -14
-225 l-6 -47 -200 166 c-110 91 -231 192 -270 224 -38 32 -155 129 -258 215
-104 86 -190 155 -191 153 -1 -1 -13 -56 -26 -122 l-23 -118 29 -27 c59 -53
188 -167 238 -210 28 -24 83 -72 121 -106 39 -35 147 -130 240 -211 410 -357
533 -472 498 -462 -8 2 -152 -31 -164 -38 -3 -1 1 -40 7 -86 16 -102 17 -151
2 -95 -6 20 -14 37 -19 37 -5 0 -9 12 -10 28 -1 21 -3 18 -11 -15 -9 -43 -9
-43 -56 -44 -26 -1 -63 -2 -84 -3 -29 -2 -35 0 -31 13 4 14 3 14 -6 1 -7 -11
-5 -20 7 -34 15 -18 14 -18 -14 2 -38 26 -61 52 -46 52 6 0 15 -7 20 -16 6
-11 11 -13 16 -5 12 18 -4 32 -32 30 -31 -3 -82 26 -82 47 0 8 -7 14 -16 14
-8 0 -30 14 -47 32 -18 17 -34 32 -37 32 -3 1 -4 5 -2 11 2 5 0 7 -4 2 -4 -4
-16 0 -26 9 -15 14 -16 20 -5 33 11 14 10 14 -6 2 -14 -11 -20 -12 -30 -2 -7
7 -12 17 -12 24 -1 7 -6 11 -13 9 -9 -1 -170 124 -202 158 -3 3 -21 17 -42 32
-20 15 -42 33 -50 40 -7 7 -36 32 -64 56 l-52 42 -7 -167 -8 -167 24 -19 c13
-11 23 -23 22 -28 -2 -5 3 -6 10 -3 7 2 22 -4 32 -16 10 -11 23 -20 30 -20 6
0 21 -10 33 -23 18 -19 19 -26 9 -37 -10 -12 -9 -12 5 -1 19 14 42 6 32 -11
-4 -6 -2 -8 3 -5 6 4 30 -8 54 -26 39 -29 157 -116 168 -124 2 -2 2 -6 -2 -9
-3 -3 -16 3 -28 15 -17 15 -25 18 -30 9 -11 -17 -59 7 -66 32 -3 11 -10 20
-17 20 -6 0 -6 4 3 9 8 5 9 11 3 15 -6 3 -18 -1 -26 -10 -15 -14 -18 -14 -37
8 l-20 23 6 -22 6 -23 -165 0 -164 0 -11 -32 c-8 -25 -7 -53 4 -113 9 -44 18
-96 20 -115 3 -19 10 -65 17 -102 13 -76 9 -74 103 -54 l60 13 32 -126 c38
-147 39 -165 14 -192 -18 -20 -19 -19 -83 53 -224 252 -413 608 -501 943 -113
432 -90 922 67 1382 107 317 259 567 474 781 l123 123 63 147 c34 81 65 155
69 165 9 24 16 22 84 -25z m20781 -29 c365 -39 767 -197 1060 -416 99 -74 274
-243 370 -358 114 -136 243 -339 346 -545 172 -346 308 -743 367 -1077 27
-148 37 -466 20 -609 -103 -872 -709 -1534 -1534 -1674 -66 -11 -135 -20 -155
-20 -36 1 -34 2 35 35 329 154 627 416 795 700 264 444 337 972 228 1640 -162
988 -585 1668 -1260 2028 -231 123 -628 234 -848 238 -93 1 -91 15 3 33 191
36 390 45 573 25z m-16654 -49 c396 -29 821 -186 1133 -418 112 -84 293 -260
388 -377 270 -335 497 -811 645 -1356 236 -866 -22 -1710 -672 -2199 -267
-202 -569 -317 -928 -355 l-55 -6 130 68 c415 218 705 525 866 919 99 242 139
454 146 775 9 382 -44 746 -168 1159 -235 782 -689 1320 -1329 1575 -188 75
-447 135 -650 151 -67 5 -88 9 -72 15 39 14 203 40 307 48 55 5 105 9 110 9 6
1 73 -3 149 -8z m9035 -117 c1 -36 -2 -43 -18 -43 -14 0 -24 -13 -37 -45 -9
-25 -15 -47 -13 -48 2 -2 110 -38 239 -80 569 -187 1125 -425 1450 -622 69
-42 133 -81 142 -87 13 -10 36 -9 100 1 129 19 406 25 543 12 214 -22 457 -78
645 -148 100 -37 315 -145 414 -208 200 -125 299 -207 561 -465 451 -442 557
-541 840 -776 425 -354 800 -607 1139 -769 209 -100 376 -154 526 -169 82 -9
504 -26 671 -27 238 -1 241 -6 48 -66 -359 -114 -692 -182 -1048 -214 -171
-15 -557 -6 -701 16 -422 65 -741 195 -1040 424 -47 36 -161 124 -254 196
-513 396 -1009 765 -1441 1073 -344 246 -476 341 -775 557 -146 105 -301 216
-345 246 -44 29 -116 80 -160 112 -175 127 -363 257 -415 287 -192 114 -385
191 -959 384 -239 81 -436 148 -437 149 -2 1 29 27 67 57 70 55 139 147 215
289 26 49 29 52 35 30 4 -13 7 -43 8 -66z m7041 57 c759 -66 1352 -461 1714
-1142 268 -505 433 -1281 387 -1823 -60 -714 -405 -1234 -1016 -1531 -243
-118 -293 -127 -581 -104 -478 38 -862 187 -1190 462 -84 71 -219 206 -212
213 2 2 59 8 128 14 430 41 946 167 1353 332 113 46 137 62 137 93 -1 50 -6
51 -222 53 -291 3 -834 22 -963 33 -176 16 -347 70 -575 186 -141 71 -371 206
-386 226 -6 7 -20 47 -32 88 -178 636 -108 1353 192 1965 173 353 378 604 626
770 107 72 176 105 300 146 96 31 160 34 340 19z m-16490 -65 c593 -74 1078
-350 1427 -813 281 -373 482 -916 569 -1537 21 -156 30 -514 15 -658 -70 -673
-406 -1173 -985 -1466 -65 -33 -158 -74 -205 -92 l-86 -31 -205 5 c-356 9
-617 69 -908 207 -404 193 -751 560 -987 1045 -188 388 -260 672 -272 1080 -8
284 18 526 87 795 185 724 608 1280 1100 1447 84 28 108 32 210 32 64 1 172
-6 240 -14z m9270 -466 c85 -29 157 -53 159 -55 2 -2 -8 -42 -24 -88 -137
-424 -743 -709 -1575 -740 l-145 -6 55 26 c30 15 118 56 195 92 279 131 557
291 733 422 113 85 274 232 352 323 36 42 72 76 80 76 8 1 85 -22 170 -50z
m3360 -74 c69 -63 358 -325 525 -475 94 -84 213 -193 265 -241 52 -48 108 -98
125 -111 l29 -23 -29 -6 c-17 -4 -47 -7 -67 -8 l-38 -1 0 -55 c0 -30 -2 -55
-5 -55 -3 0 -48 37 -101 83 -285 244 -590 419 -911 522 -29 9 -53 21 -53 27 0
11 60 268 81 351 l10 37 67 -6 c57 -5 72 -11 102 -39z m-19543 -1707 c-3 -8
-6 -5 -6 6 -1 11 2 17 5 13 3 -3 4 -12 1 -19z m438 2 c3 -5 1 -10 -4 -10 -6 0
-11 5 -11 10 0 6 2 10 4 10 3 0 8 -4 11 -10z m381 -26 c1 -9 0 -13 -4 -10 -3
4 -7 14 -8 22 -1 9 0 13 4 10 3 -4 7 -14 8 -22z m101 4 c-3 -8 -6 -5 -6 6 -1
11 2 17 5 13 3 -3 4 -12 1 -19z m-457 -2 c0 -2 -7 -7 -16 -10 -8 -3 -12 -2 -9
4 6 10 25 14 25 6z m390 -26 c0 -5 -2 -10 -4 -10 -3 0 -8 5 -11 10 -3 6 -1 10
4 10 6 0 11 -4 11 -10z m18593 -116 c31 -25 33 -31 12 -36 -10 -2 -4 -9 17
-21 32 -18 32 -18 15 0 -9 11 -14 23 -11 26 9 9 85 -53 79 -63 -3 -5 0 -12 5
-15 7 -5 5 -12 -7 -21 -17 -12 -16 -13 9 -14 15 0 30 4 33 10 4 6 -1 7 -12 3
-10 -3 -15 -3 -11 2 4 4 3 14 -3 22 -22 26 3 12 71 -38 81 -61 88 -85 24 -85
-23 0 -40 4 -38 8 3 5 17 6 32 2 26 -5 26 -5 7 10 -40 31 -46 38 -41 52 6 16
-10 29 -19 14 -4 -6 -65 -10 -156 -10 -142 0 -149 -1 -149 -20 0 -11 -4 -20
-10 -20 -5 0 -10 9 -10 21 0 18 -5 21 -35 17 -36 -4 -41 3 -52 82 -1 14 -6 41
-9 60 -5 33 -3 36 28 48 42 15 80 16 96 2 9 -7 9 -7 2 2 -17 20 -11 29 10 18
11 -6 20 -7 19 -3 -5 29 12 20 104 -53z m-18512 39 c13 -16 12 -17 -3 -4 -17
13 -22 21 -14 21 2 0 10 -8 17 -17z m18329 -223 c0 -5 -4 -10 -10 -10 -5 0
-10 5 -10 10 0 6 5 10 10 10 6 0 10 -4 10 -10z m-15521 -115 c0 -11 -7 0 -15
25 -7 25 -13 52 -13 60 1 21 27 -60 28 -85z m16006 74 c11 -16 1 -19 -13 -3
-7 8 -8 14 -3 14 5 0 13 -5 16 -11z m-16125 -39 c0 -11 -4 -20 -8 -20 -4 0 -8
9 -8 20 0 11 4 20 8 20 4 0 8 -9 8 -20z m-45 -20 c3 -5 1 -10 -4 -10 -6 0 -11
5 -11 10 0 6 2 10 4 10 3 0 8 -4 11 -10z m-479 -27 c-6 -6 -36 9 -36 18 0 5 9
4 20 -3 10 -7 18 -14 16 -15z m16749 -1 c-3 -3 -11 0 -18 7 -9 10 -8 11 6 5
10 -3 15 -9 12 -12z m-16228 1 c-4 -3 -1 -13 6 -22 11 -14 10 -14 -5 -2 -16
12 -16 31 -1 31 4 0 3 -3 0 -7z m-371 -25 c12 -14 13 -18 3 -10 -9 6 -18 10
-21 7 -2 -3 -5 2 -5 10 0 19 0 19 23 -7z m449 12 c3 -6 -1 -7 -9 -4 -18 7 -21
14 -7 14 6 0 13 -4 16 -10z m-430 -50 c-3 -5 -12 -10 -18 -10 -7 0 -6 4 3 10
19 12 23 12 15 0z m16699 -19 c-2 -3 -12 3 -22 13 -16 17 -16 18 5 5 12 -7 20
-15 17 -18z"/>
<path d="M21798 20803 c7 -3 16 -2 19 1 4 3 -2 6 -13 5 -11 0 -14 -3 -6 -6z"/>
<path d="M22793 20509 c9 -6 14 -15 11 -21 -4 -7 -2 -8 5 -4 14 9 -3 36 -23
36 -6 0 -3 -5 7 -11z"/>
<path d="M21790 20170 c-12 -8 -11 -10 8 -10 12 0 22 5 22 10 0 13 -11 13 -30
0z"/>
<path d="M22685 19410 c-3 -5 -1 -10 4 -10 6 0 11 5 11 10 0 6 -2 10 -4 10 -3
0 -8 -4 -11 -10z"/>
<path d="M21678 19073 c6 -2 18 -2 25 0 6 3 1 5 -13 5 -14 0 -19 -2 -12 -5z"/>
<path d="M21030 18980 c-13 -8 -13 -10 2 -10 9 0 20 5 23 10 8 13 -5 13 -25 0z"/>
<path d="M21018 16833 c7 -3 16 -2 19 1 4 3 -2 6 -13 5 -11 0 -14 -3 -6 -6z"/>
<path d="M8376 16295 c-9 -14 -12 -25 -7 -25 11 0 36 30 25 30 -5 0 -2 5 6 10
8 5 10 10 4 10 -7 0 -19 -11 -28 -25z"/>
<path d="M7447 12493 c-10 -9 -9 -23 1 -23 5 0 9 7 9 15 0 17 -1 18 -10 8z"/>
<path d="M7180 12444 c0 -22 -3 -26 -10 -14 -5 8 -10 10 -10 4 0 -6 7 -17 15
-24 12 -10 13 -16 4 -27 -7 -7 -9 -16 -6 -19 10 -10 25 31 22 64 -2 41 -15 55
-15 16z"/>
<path d="M7965 12458 c11 -6 23 -16 27 -22 5 -8 8 -7 8 2 0 14 46 16 55 2 3
-5 11 -10 18 -10 32 0 -36 29 -78 34 -40 4 -46 3 -30 -6z"/>
<path d="M7535 12440 c10 -11 23 -20 28 -20 6 0 2 9 -8 20 -10 11 -23 20 -28
20 -6 0 -2 -9 8 -20z"/>
<path d="M7618 12393 c6 -2 12 -13 12 -23 0 -21 29 -35 44 -20 7 7 5 10 -7 10
-9 0 -21 9 -27 20 -6 11 -16 20 -23 19 -9 0 -9 -2 1 -6z"/>
<path d="M28070 13604 c-224 -32 -375 -171 -436 -399 -25 -95 -29 -290 -10
-423 60 -408 237 -656 541 -758 88 -29 288 -47 536 -48 125 -1 125 -1 201 37
128 63 211 172 260 344 32 111 32 360 -1 513 -52 247 -135 428 -252 554 -120
129 -258 185 -419 173 -52 -4 -94 -2 -131 8 -66 18 -162 17 -289 -1z"/>
<path d="M11503 13549 c-327 -38 -502 -317 -463 -736 37 -400 179 -662 430
-793 113 -58 204 -81 345 -85 66 -2 149 -9 185 -14 294 -48 505 87 586 374 26
92 30 330 9 456 -70 420 -245 693 -494 770 -51 15 -91 20 -176 19 -60 -1 -126
3 -145 9 -40 12 -171 12 -277 0z"/>
<path d="M24195 12435 c32 -26 45 -31 45 -16 0 5 -9 13 -20 16 -11 3 -20 11
-20 16 0 5 -8 9 -17 9 -14 -1 -11 -6 12 -25z"/>
<path d="M5504 16169 c-19 -22 -19 -22 4 -8 12 8 22 17 22 21 0 12 -6 9 -26
-13z"/>
<path d="M4502 12920 c0 -19 2 -27 5 -17 2 9 2 25 0 35 -3 9 -5 1 -5 -18z"/>
<path d="M4521 12914 c0 -11 3 -14 6 -6 3 7 2 16 -1 19 -3 4 -6 -2 -5 -13z"/>
<path d="M4810 12896 c0 -2 8 -10 18 -17 15 -13 16 -12 3 4 -13 16 -21 21 -21
13z"/>
<path d="M4727 12879 c7 -7 15 -10 18 -7 3 3 -2 9 -12 12 -14 6 -15 5 -6 -5z"/>
<path d="M5270 12849 c0 -6 24 -19 36 -19 2 0 4 6 4 14 0 9 -9 14 -20 13 -11
-1 -20 -4 -20 -8z"/>
<path d="M535 9929 c-72 -3 -215 -7 -318 -8 -124 -1 -186 -4 -182 -11 4 -6
180 -126 393 -268 213 -142 472 -315 575 -385 104 -70 192 -127 197 -127 5 0
10 -4 12 -8 2 -5 219 -152 483 -328 403 -269 1095 -733 1185 -794 14 -10 61
-41 105 -70 44 -30 194 -130 334 -223 173 -115 259 -167 267 -161 17 12 277
325 272 328 -1 2 -194 130 -428 286 -234 156 -580 388 -770 515 -190 127 -692
464 -1117 748 l-772 517 -53 -2 c-29 -1 -111 -5 -183 -9z"/>
<path d="M37140 9634 c-250 -168 -943 -633 -1540 -1032 -597 -399 -1086 -726
-1088 -728 -6 -4 260 -344 269 -344 5 0 186 118 402 263 957 643 1520 1020
1667 1117 88 58 461 308 831 555 l672 450 -254 6 c-140 3 -310 9 -379 13
l-125 6 -455 -306z"/>
<path d="M22776 6283 c-26 -54 -71 -136 -99 -183 -190 -319 -350 -450 -677
-556 l-75 -24 -780 0 c-791 0 -1007 -7 -1163 -35 -392 -72 -649 -283 -739
-608 -23 -82 -25 -104 -20 -207 6 -108 23 -182 57 -242 6 -10 10 -20 10 -23 0
-3 -191 -5 -425 -5 -234 0 -425 1 -425 3 0 2 66 197 146 433 l145 429 -3 85
c-5 108 -32 154 -110 191 -46 21 -65 24 -172 23 -136 0 -196 -14 -311 -72
-103 -51 -131 -72 -475 -367 -173 -148 -323 -276 -331 -283 -10 -7 18 80 69
215 83 220 86 231 87 313 0 79 -2 87 -30 122 -46 59 -97 73 -250 72 -143 -1
-214 -16 -338 -72 -101 -46 -159 -90 -540 -410 -193 -161 -351 -291 -353 -289
-2 1 48 164 110 362 l112 360 -380 3 c-208 1 -381 0 -383 -2 -4 -4 -434 -1378
-449 -1433 l-6 -23 261 0 c239 0 267 2 324 21 34 11 78 33 97 47 19 14 225
185 458 380 232 194 422 351 422 348 0 -3 -40 -113 -89 -245 -49 -132 -95
-265 -101 -296 -25 -118 16 -216 108 -257 70 -32 243 -32 326 0 141 55 214
109 711 530 176 149 321 270 322 269 1 -2 -30 -106 -68 -232 -76 -247 -86
-316 -56 -386 19 -46 80 -114 132 -148 l40 -26 528 -3 c307 -1 551 1 580 7 89
16 164 50 216 97 59 53 83 90 106 161 l17 53 28 -38 c100 -139 317 -248 579
-292 117 -19 159 -22 335 -17 221 5 327 22 471 75 328 122 535 396 535 711 0
118 -49 251 -118 324 l-36 37 497 0 c273 0 497 -3 497 -8 0 -4 -27 -95 -61
-202 -180 -579 -199 -646 -198 -684 2 -92 45 -161 126 -199 l48 -22 700 0
c660 0 703 1 755 19 143 49 230 120 282 231 l30 65 27 -38 c101 -139 318 -248
580 -292 117 -19 159 -22 335 -17 221 5 327 22 471 75 328 122 535 396 535
711 0 118 -49 251 -118 324 l-36 37 518 0 c489 0 518 -1 511 -17 -4 -10 -65
-179 -136 -375 -71 -196 -132 -364 -135 -373 -5 -13 10 -15 119 -15 137 0 174
10 218 57 15 15 106 183 202 373 l176 345 220 3 c122 1 221 -1 221 -5 0 -5
-52 -175 -116 -378 -91 -291 -117 -386 -121 -446 -7 -100 13 -164 67 -213 82
-74 53 -71 655 -71 611 0 585 -3 722 82 74 45 122 96 148 155 12 29 14 30 15
9 1 -112 101 -203 259 -237 102 -21 1901 -21 1986 1 183 47 344 185 345 298
l0 27 -421 0 -420 0 33 42 c76 95 98 158 98 275 0 147 -31 262 -167 626 l-86
228 30 62 c43 85 53 129 53 222 0 100 -27 163 -94 222 -54 48 -157 92 -221 96
l-44 2 -256 -274 -255 -274 0 -46 c0 -56 21 -139 52 -205 l22 -48 -174 -166
c-96 -92 -220 -210 -275 -264 l-100 -98 208 0 209 0 116 110 c109 102 117 108
125 87 5 -12 24 -75 43 -140 39 -137 43 -215 16 -299 -18 -55 -78 -158 -91
-158 -4 0 -50 25 -102 56 -105 63 -205 111 -324 156 -71 28 -92 31 -195 32
-100 1 -123 -2 -175 -23 -101 -41 -163 -103 -186 -185 l-10 -36 -444 0 c-245
0 -445 3 -445 8 0 4 76 253 170 553 93 300 170 549 170 552 0 4 -259 7 -576 7
-545 0 -576 1 -569 18 15 37 165 487 165 496 0 14 -452 -1 -536 -18 -162 -33
-313 -116 -393 -216 -41 -52 -80 -159 -82 -228 l-2 -52 -741 0 c-753 0 -969
-7 -1124 -35 -392 -72 -649 -283 -739 -608 -23 -82 -25 -104 -20 -207 6 -108
23 -182 57 -242 6 -10 10 -20 10 -23 0 -3 -255 -5 -566 -5 -449 0 -565 3 -562
13 3 6 56 182 119 390 l114 377 115 0 c182 0 288 36 387 133 47 45 123 167
123 196 0 8 -76 11 -256 11 -239 0 -255 1 -250 18 3 9 62 199 131 421 69 222
125 407 125 412 0 5 -93 9 -208 9 l-207 0 -49 -97z m-2146 -1110 c0 -5 -64
-187 -142 -407 l-142 -398 -126 4 c-145 5 -209 26 -261 86 -50 57 -42 105 76
440 l100 282 248 0 c136 0 247 -3 247 -7z m4470 0 c0 -5 -64 -187 -142 -407
l-142 -398 -126 4 c-145 5 -209 26 -261 86 -50 57 -42 105 76 440 l100 282
248 0 c136 0 247 -3 247 -7z"/>
<path d="M3800 5063 c-111 -10 -384 -58 -697 -123 -627 -128 -945 -175 -1384
-206 l-96 -6 -149 -181 c-82 -100 -156 -188 -164 -197 -8 -8 -33 -38 -55 -65
-22 -28 -46 -54 -53 -58 -33 -21 -2 -27 153 -27 435 0 1022 66 1545 175 157
32 607 121 680 134 229 41 545 49 705 17 160 -31 318 -91 495 -187 69 -38 253
-173 350 -258 98 -86 317 -305 405 -406 39 -44 72 -82 75 -85 8 -8 192 -230
233 -281 37 -46 38 -49 113 -425 42 -209 86 -426 98 -484 l21 -105 5295 -2
5295 -3 1143 -1143 1142 -1143 1142 1143 1142 1143 5252 0 5252 0 5 23 c3 12
38 184 77 382 39 198 75 369 79 380 12 26 168 215 286 345 89 98 321 325 412
403 217 185 458 340 664 424 468 193 880 202 1744 38 17 -3 137 -25 269 -50
644 -122 1099 -176 1609 -192 128 -4 217 -2 217 3 -1 15 -329 442 -385 500
-30 31 -31 31 -164 38 -347 17 -733 73 -1486 215 -490 92 -741 123 -1005 123
-201 0 -347 -16 -515 -56 -523 -127 -1022 -495 -1585 -1169 l-73 -88 -84 -387
c-45 -213 -83 -390 -83 -394 0 -5 -5766 -8 -12813 -8 l-12813 0 -17 88 c-66
348 -182 901 -187 892 -3 -5 -22 12 -41 38 -188 250 -584 669 -779 822 -261
207 -472 316 -730 377 -89 21 -135 25 -300 28 -107 1 -215 1 -240 -2z"/>
<path d="M32230 3033 l0 -78 125 3 125 3 0 -325 0 -326 110 0 110 0 2 323 3
322 123 0 122 0 0 78 0 77 -360 0 -360 0 0 -77z"/>
<path d="M33040 2710 l0 -400 95 0 95 0 0 333 c1 374 -1 370 64 112 20 -77 50
-192 66 -255 17 -63 35 -132 41 -152 l10 -38 99 0 98 0 11 33 c6 17 44 156 86
307 41 151 80 284 85 295 5 13 9 -102 9 -307 l1 -328 95 0 95 0 0 400 0 400
-169 0 -168 0 -12 -42 c-6 -24 -34 -142 -62 -263 -28 -121 -53 -222 -55 -224
-2 -2 -6 2 -9 10 -5 16 -72 287 -105 427 l-22 92 -174 0 -174 0 0 -400z"/>
</g>
</svg>
